<svg data-v-0dd9719b="" version="1.0"
    xmlns="http://www.w3.org/2000/svg"
    xmlns:xlink="http://www.w3.org/1999/xlink" width="100%" height="100%" viewBox="0 0 340.000000 250.000000" preserveAspectRatio="xMidYMid meet" color-interpolation-filters="sRGB" style="margin: auto;">
    <rect data-v-0dd9719b="" x="0" y="0" width="100%" height="100%" fill="#fff" fill-opacity="1" class="background"></rect>
    <g data-v-0dd9719b="" fill="#333" class="icon-text-wrapper icon-svg-group iconsvg" transform="translate(47.54499816894531,92.98531723022461)">
        <g class="iconsvg-imagesvg" transform="matrix(1,0,0,1,0,0)" opacity="1">
            <g>
                <rect fill="#333" fill-opacity="0" stroke-width="2" x="0" y="0" width="60" height="64.0293681368521" class="image-rect"></rect>
                <svg x="0" y="0" width="60" height="64.0293681368521" filtersec="colorsb5311200843" class="image-svg-svg primary" style="overflow: visible;">
                    <svg xmlns="http://www.w3.org/2000/svg" viewBox="0 0 96.19000244140625 102.65000915527344">
                        <g fill-rule="evenodd">
                            <path fill="#e7310b" d="M42.3 0L0 44.77l32.66 57.88 42.3-44.76L42.3 0z"></path>
                            <path fill="#f25e0f" opacity=".8" d="M24.8 33.15L68.6.37l7.86 69.5-43.8 32.78-7.86-69.5z"></path>
                            <path fill="#f87915" opacity=".6" d="M76.3 72.48l9.92-57.12-43.64 30.18-9.92 57.11L76.3 72.48z"></path>
                            <path fill="#fbb04a" opacity=".4" d="M78.97 81.01l17.22-33.83-46.31 21.65-17.22 33.82 46.31-21.64z"></path>
                        </g>
                    </svg>
                </svg>
            </g>
        </g>
        <g transform="translate(67,7.914682388305664)">
            <g data-gra="path-name" fill-rule="" class="tp-name iconsvg-namesvg" opacity="1" transform="matrix(1,0,0,1,0,0)">
                <g transform="scale(1)">
                    <g>
                        <path d="M1.69-34.15L1.69-35.15Q2.93-35.1 5.04-35.05 7.15-35 9.23-35L9.23-35Q11.62-35 13.85-35.05 16.08-35.1 17.03-35.1L17.03-35.1Q23.18-35.1 26.24-32.91 29.29-30.73 29.29-27.3L29.29-27.3Q29.29-25.57 28.25-23.78 27.2-21.99 25.02-20.6 22.84-19.21 19.36-18.57L19.36-18.57 19.36-18.47Q24.03-18.12 26.76-16.78 29.49-15.44 30.68-13.55 31.87-11.67 31.87-9.63L31.87-9.63Q31.87-4.96 28.22-2.48 24.57 0 18.17 0L18.17 0Q16.98 0 14.72-0.07 12.46-0.15 9.33-0.15L9.33-0.15Q7.15-0.15 5.04-0.12 2.93-0.1 1.69 0L1.69 0 1.69-0.99Q3.28-1.09 4.07-1.39 4.86-1.69 5.14-2.58 5.41-3.47 5.41-5.26L5.41-5.26 5.41-29.88Q5.41-31.72 5.14-32.59 4.86-33.46 4.05-33.78 3.23-34.1 1.69-34.15L1.69-34.15ZM16.38-34.15L16.38-34.15Q14.45-34.15 13.87-33.31 13.3-32.47 13.3-29.88L13.3-29.88 13.3-5.26Q13.3-2.68 13.95-1.91 14.59-1.14 16.73-1.14L16.73-1.14Q20.3-1.14 21.97-3.4 23.63-5.66 23.63-9.83L23.63-9.83Q23.63-13.65 21.72-15.74 19.81-17.82 15.39-17.82L15.39-17.82 11.17-17.82Q11.17-17.82 11.17-18.24 11.17-18.67 11.17-18.67L11.17-18.67 15.44-18.67Q17.77-18.67 19.01-19.78 20.25-20.9 20.75-22.76 21.25-24.62 21.25-26.76L21.25-26.76Q21.25-30.43 20.1-32.29 18.96-34.15 16.38-34.15ZM41.1 0.35L41.1 0.35Q37.78 0.35 36.29-1.39 34.8-3.13 34.8-5.61L34.8-5.61Q34.8-7.74 35.77-9.08 36.73-10.42 38.27-11.29 39.81-12.16 41.53-12.73 43.24-13.3 44.8-13.87 46.37-14.45 47.33-15.19 48.3-15.93 48.3-17.08L48.3-17.08 48.3-20.95Q48.3-22.24 47.88-23.26 47.46-24.27 46.59-24.82 45.72-25.37 44.33-25.37L44.33-25.37Q43.34-25.37 42.34-25.09 41.35-24.82 40.71-24.18L40.71-24.18Q42.1-23.68 42.87-22.66 43.63-21.64 43.63-20.35L43.63-20.35Q43.63-18.67 42.47-17.67 41.3-16.68 39.71-16.68L39.71-16.68Q37.93-16.68 37.01-17.8 36.09-18.91 36.09-20.5L36.09-20.5Q36.09-21.94 36.81-22.88 37.53-23.83 38.82-24.67L38.82-24.67Q40.21-25.47 42.17-25.91 44.13-26.36 46.41-26.36L46.41-26.36Q48.7-26.36 50.54-25.89 52.37-25.42 53.61-24.18L53.61-24.18Q54.75-23.03 55.1-21.37 55.45-19.71 55.45-17.18L55.45-17.18 55.45-3.67Q55.45-2.48 55.7-1.99 55.95-1.49 56.54-1.49L56.54-1.49Q57.04-1.49 57.48-1.74 57.93-1.99 58.33-2.33L58.33-2.33 58.83-1.49Q57.78-0.6 56.42-0.12 55.05 0.35 53.36 0.35L53.36 0.35Q50.39 0.35 49.42-0.87 48.45-2.08 48.4-3.67L48.4-3.67Q47.16-1.64 45.35-0.65 43.54 0.35 41.1 0.35ZM44.93-2.83L44.93-2.83Q45.87-2.83 46.69-3.28 47.51-3.72 48.3-4.86L48.3-4.86 48.3-15.04Q47.71-14.05 46.64-13.38 45.57-12.71 44.45-11.94 43.34-11.17 42.59-9.98 41.85-8.79 41.85-6.8L41.85-6.8Q41.85-4.67 42.74-3.75 43.63-2.83 44.93-2.83ZM78.73-26.36L78.73-26.36Q80.82-26.36 82.13-25.84 83.45-25.32 84.19-24.42L84.19-24.42Q84.99-23.48 85.36-21.99 85.73-20.5 85.73-17.97L85.73-17.97 85.73-4.62Q85.73-2.53 86.45-1.79 87.17-1.04 88.91-1.04L88.91-1.04 88.91 0Q87.96-0.05 86.08-0.12 84.19-0.2 82.36-0.2L82.36-0.2Q80.47-0.2 78.66-0.12 76.85-0.05 75.9 0L75.9 0 75.9-1.04Q77.39-1.04 77.99-1.79 78.58-2.53 78.58-4.62L78.58-4.62 78.58-20.06Q78.58-21.3 78.33-22.21 78.09-23.13 77.44-23.65 76.8-24.18 75.5-24.18L75.5-24.18Q73.42-24.18 72-22.54 70.59-20.9 70.59-18.42L70.59-18.42 70.59-4.62Q70.59-2.53 71.21-1.79 71.83-1.04 73.27-1.04L73.27-1.04 73.27 0Q72.38-0.05 70.66-0.12 68.95-0.2 67.12-0.2L67.12-0.2Q65.23-0.2 63.24-0.12 61.26-0.05 60.26 0L60.26 0 60.26-1.04Q62-1.04 62.72-1.79 63.44-2.53 63.44-4.62L63.44-4.62 63.44-20.25Q63.44-22.49 62.77-23.55 62.1-24.62 60.26-24.62L60.26-24.62 60.26-25.66Q61.85-25.52 63.34-25.52L63.34-25.52Q65.43-25.52 67.24-25.69 69.05-25.86 70.59-26.21L70.59-26.21 70.59-21.74Q71.83-24.27 73.97-25.32 76.1-26.36 78.73-26.36ZM100.82-38.87L100.82-38.87 100.82-4.62Q100.82-2.53 101.49-1.79 102.16-1.04 103.8-1.04L103.8-1.04 103.8 0Q102.86-0.05 101.05-0.12 99.23-0.2 97.35-0.2L97.35-0.2Q95.41-0.2 93.45-0.12 91.49-0.05 90.5 0L90.5 0 90.5-1.04Q92.23-1.04 92.95-1.79 93.67-2.53 93.67-4.62L93.67-4.62 93.67-32.91Q93.67-35.15 93-36.21 92.33-37.28 90.5-37.28L90.5-37.28 90.5-38.32Q92.08-38.17 93.57-38.17L93.57-38.17Q95.61-38.17 97.45-38.35 99.28-38.52 100.82-38.87ZM117-25.66L117-25.66 117-24.67Q115.47-24.37 113.93-23.38 112.39-22.39 110.8-20.85L110.8-20.85 106.98-16.88 107.47-17.82 115.96-3.62Q116.51-2.73 117.1-2.04 117.7-1.34 118.54-1.04L118.54-1.04 118.54 0Q117.8-0.05 116.31-0.12 114.82-0.2 113.33-0.2L113.33-0.2Q111.49-0.2 109.66-0.12 107.82-0.05 106.93 0L106.93 0 106.93-1.04Q107.92-1.04 108.27-1.51 108.62-1.99 108.17-2.73L108.17-2.73 103.25-11.62Q102.66-12.56 102.09-12.83 101.52-13.11 100.57-13.15L100.57-13.15 100.57-14.1Q101.62-14.2 102.39-14.45 103.15-14.69 103.8-15.39L103.8-15.39 107.57-19.06Q109.26-20.65 109.26-21.89 109.26-23.13 108.19-23.88 107.13-24.62 105.39-24.67L105.39-24.67 105.39-25.66Q106.78-25.62 108.42-25.57 110.06-25.52 111.2-25.52L111.2-25.52Q112.19-25.52 113.31-25.54 114.42-25.57 115.42-25.59 116.41-25.62 117-25.66ZM155.38-0.6L155.38-0.6 156.27-0.35Q155.87 2.38 155.03 4.34 154.19 6.3 152.85 7.4L152.85 7.4Q151.8 8.24 150.14 8.79 148.48 9.33 146.44 9.33L146.44 9.33Q143.71 9.33 141.11 8.49 138.5 7.64 135.82 6.43 133.14 5.21 130.16 4.07L130.16 4.07Q129.81 3.97 129.49 3.85 129.17 3.72 128.97 3.72L128.97 3.72Q128.03 4.17 126.91 4.47 125.79 4.77 124.8 4.77L124.8 4.77Q123.81 4.77 123.14 4.47 122.47 4.17 122.47 3.47L122.47 3.47Q122.47 2.13 125.2 2.13L125.2 2.13Q126.93 2.13 128.97 2.83L128.97 2.83Q130.81 2.33 132.12 1.71 133.44 1.09 134.85 0.55 136.27 0 138.3-0.15L138.3-0.15 138.35 0.65Q136.76 0.79 135.65 1.22 134.53 1.64 133.39 2.13 132.24 2.63 130.71 3.08L130.71 3.08Q134.23 3.33 137.26 3.6 140.29 3.87 142.87 3.95 145.45 4.02 147.53 3.72L147.53 3.72Q150.61 3.38 152.4 2.38 154.19 1.39 155.38-0.6ZM137.16-35.84L137.16-35.84Q142.42-35.84 146.37-33.71 150.31-31.57 152.5-27.58 154.68-23.58 154.68-17.87L154.68-17.87Q154.68-12.31 152.45-8.14 150.22-3.97 146.22-1.64 142.22 0.69 137.11 0.69L137.11 0.69Q131.85 0.69 127.9-1.44 123.95-3.57 121.77-7.6 119.59-11.62 119.59-17.28L119.59-17.28Q119.59-22.84 121.85-27 124.1-31.17 128.05-33.51 132-35.84 137.16-35.84ZM136.96-34.95L136.96-34.95Q134.18-34.95 132.12-32.71 130.06-30.48 128.94-26.56 127.83-22.64 127.83-17.47L127.83-17.47Q127.83-12.21 129.09-8.31 130.36-4.42 132.52-2.31 134.68-0.2 137.31-0.2L137.31-0.2Q140.09-0.2 142.15-2.43 144.21-4.67 145.33-8.61 146.44-12.56 146.44-17.67L146.44-17.67Q146.44-22.98 145.18-26.86 143.91-30.73 141.75-32.84 139.59-34.95 136.96-34.95ZM175.09-26.36L175.09-26.36Q176.67-26.36 177.67-25.69 178.66-25.02 179.13-23.98 179.6-22.93 179.6-21.79L179.6-21.79Q179.6-19.96 178.54-18.79 177.47-17.62 175.73-17.62L175.73-17.62Q173.99-17.62 173.03-18.49 172.06-19.36 172.06-20.8L172.06-20.8Q172.06-22.19 172.68-23.11 173.3-24.03 174.24-24.67L174.24-24.67Q173.55-24.87 172.85-24.62L172.85-24.62Q171.56-24.42 170.54-23.41 169.53-22.39 168.93-21 168.33-19.61 168.33-18.27L168.33-18.27 168.33-5.11Q168.33-2.73 169.5-1.89 170.67-1.04 173-1.04L173-1.04 173 0Q171.86-0.05 169.67-0.12 167.49-0.2 165.11-0.2L165.11-0.2Q163.12-0.2 161.09-0.12 159.05-0.05 158.01 0L158.01 0 158.01-1.04Q159.75-1.04 160.47-1.79 161.19-2.53 161.19-4.62L161.19-4.62 161.19-20.25Q161.19-22.49 160.52-23.55 159.85-24.62 158.01-24.62L158.01-24.62 158.01-25.66Q159.6-25.52 161.09-25.52L161.09-25.52Q163.17-25.52 164.98-25.69 166.8-25.86 168.33-26.21L168.33-26.21 168.33-21.59Q168.93-22.93 169.92-24.03 170.92-25.12 172.21-25.74 173.5-26.36 175.09-26.36Z" transform="translate(-1.690000057220459, 38.869998931884766)"></path>
                    </g>
                </g>
            </g>
        </g>
    </g>
    <defs v-gra="od"></defs>
</svg>